# xmcd CD database file
#
# Track frame offsets:
#	150
#	11625
#	29102
#	46685
#	59362
#	80885
#	97537
#	113672
#	128582
#	142907
#	156432
#
# Disc length: 2300 seconds
#
# Revision: 0
# Processed by: cddbd v1.5.2PL0 Copyright (c) Steve Scherf et al.
# Submitted via: CDex 1.70beta2
#
DISCID=8608fa0b
DTITLE=Patty Ascher - Patty Ascher - Deu Jazz no Samba
DYEAR=2009
DGENRE=Jazz
TTITLE0=Springtime
TTITLE1=The Summer Knows
TTITLE2=Girls just want to kiss
TTITLE3=Booking time
TTITLE4=How much i care
TTITLE5=The Winter
TTITLE6=Saudade
TTITLE7=Sunrise (amanhecendo)
TTITLE8=The sun
TTITLE9=Talvez
TTITLE10=Pela manhã
EXTD=YEAR: 2009
EXTT0=
EXTT1=
EXTT2=
EXTT3=
EXTT4=
EXTT5=
EXTT6=
EXTT7=
EXTT8=
EXTT9=
EXTT10=
PLAYORDER=
